<?xml version="1.0" standalone="no"?>
<!DOCTYPE svg PUBLIC "-//W3C//DTD SVG 20010904//EN"
 "http://www.w3.org/TR/2001/REC-SVG-20010904/DTD/svg10.dtd">
<svg version="1.0" xmlns="http://www.w3.org/2000/svg"
 width="300.000000pt" height="300.000000pt" viewBox="0 0 300.000000 300.000000"
 preserveAspectRatio="xMidYMid meet">
<metadata>
Created by potrace 1.10, written by Peter Selinger 2001-2011
</metadata>
<g transform="translate(0.000000,300.000000) scale(0.100000,-0.100000)"
fill="#000000" stroke="none">
<path d="M190 2965 c-19 -14 -45 -38 -57 -53 l-22 -27 0 -1255 -1 -1255 23
-39 c12 -22 35 -49 50 -60 27 -20 42 -21 336 -24 l308 -3 6 -59 c6 -71 41
-139 80 -158 22 -10 216 -14 942 -19 l914 -6 41 28 c79 55 73 -38 78 1179 l5
1088 -229 229 -229 229 -240 0 -240 0 -115 115 -115 115 -750 0 -751 0 -34
-25z m1484 -87 c-3 -29 -1 -106 4 -171 9 -115 9 -118 42 -152 46 -47 80 -55
248 -55 l142 0 0 -1063 0 -1063 -33 -32 -34 -33 -906 3 -907 3 -27 28 -28 27
-3 1247 -3 1246 32 34 33 33 723 0 723 0 -6 -52z m219 -145 c92 -92 167 -169
167 -170 0 -2 -52 -3 -115 -3 -127 0 -175 13 -196 52 -7 13 -15 79 -18 156 -3
72 -6 132 -6 132 1 0 76 -75 168 -167z m355 -43 l152 0 0 -130 c0 -160 11
-218 51 -256 34 -33 96 -43 272 -43 l107 -1 0 -1062 0 -1062 -32 -33 -32 -33
-906 0 -906 0 -28 29 c-22 23 -29 41 -33 87 l-5 59 477 -4 c581 -4 668 0 725
37 24 16 49 44 60 68 20 39 20 66 20 1121 l0 1081 -75 69 c-41 38 -75 73 -75
78 0 4 17 5 38 1 20 -3 106 -6 190 -6z m539 -370 c2 -3 -57 -4 -129 -2 -133 3
-133 3 -165 34 -31 30 -31 31 -35 152 -2 66 -8 130 -12 141 -7 16 331 -306
341 -325z"/>
<path d="M443 2553 c-24 -3 -33 -9 -33 -23 0 -28 56 -31 505 -28 l400 3 3 28
3 27 -423 -2 c-233 0 -438 -3 -455 -5z"/>
<path d="M463 2213 c-43 -3 -53 -7 -53 -23 0 -16 12 -19 103 -25 56 -4 379 -5
717 -3 l615 3 0 25 0 25 -665 1 c-366 1 -689 -1 -717 -3z"/>
<path d="M458 1873 c-38 -3 -48 -8 -48 -22 0 -14 11 -20 53 -25 87 -10 1333
-7 1361 4 36 13 33 37 -6 43 -37 6 -1286 6 -1360 0z"/>
<path d="M412 1514 l3 -25 702 1 c387 0 710 3 718 6 8 4 15 12 15 19 0 20
-154 25 -818 25 l-623 0 3 -26z"/>
<path d="M413 1194 c-12 -31 6 -42 74 -50 81 -8 1322 2 1347 12 34 13 13 39
-39 46 -28 4 -348 7 -713 6 -555 0 -664 -3 -669 -14z"/>
<path d="M438 863 c-22 -3 -28 -10 -28 -29 l0 -24 659 0 c706 0 784 3 779 29
-2 11 -19 18 -53 23 -53 7 -1311 8 -1357 1z"/>
<path d="M2208 1973 c-10 -2 -18 -13 -18 -23 0 -27 37 -31 220 -28 l155 3 0
25 0 25 -170 1 c-93 1 -178 0 -187 -3z"/>
<path d="M2213 1633 c-14 -3 -23 -12 -23 -23 0 -25 26 -30 187 -30 144 0 193
8 193 33 0 10 -21 16 -77 21 -81 6 -243 6 -280 -1z"/>
<path d="M2213 1300 c-27 -11 -29 -23 -8 -40 22 -18 329 -27 350 -10 26 21 18
47 -16 54 -47 9 -301 6 -326 -4z"/>
<path d="M2207 963 c-12 -3 -17 -12 -15 -26 3 -22 6 -22 188 -22 181 0 185 0
188 21 2 15 -4 23 -20 28 -26 7 -314 6 -341 -1z"/>
<path d="M2208 623 c-10 -2 -18 -13 -18 -23 0 -27 38 -32 220 -28 l155 3 0 25
0 25 -170 2 c-93 0 -178 -1 -187 -4z"/>
</g>
</svg>
