<?xml version="1.0" standalone="no"?>
<!DOCTYPE svg PUBLIC "-//W3C//DTD SVG 20010904//EN"
 "http://www.w3.org/TR/2001/REC-SVG-20010904/DTD/svg10.dtd">
<svg version="1.0" xmlns="http://www.w3.org/2000/svg"
 width="300.000000pt" height="300.000000pt" viewBox="0 0 300.000000 300.000000"
 preserveAspectRatio="xMidYMid meet">
<metadata>
Created by potrace 1.10, written by Peter Selinger 2001-2011
</metadata>
<g transform="translate(0.000000,300.000000) scale(0.100000,-0.100000)"
fill="#000000" stroke="none">
<path d="M1224 2989 c-62 -8 -103 -28 -150 -76 -51 -51 -75 -111 -81 -204 l-6
-79 -285 0 c-307 0 -338 -4 -396 -51 -132 -109 -83 -337 81 -382 l42 -11 3
-916 3 -915 23 -57 c50 -125 148 -222 271 -268 50 -20 79 -20 771 -20 692 0
721 0 771 20 123 46 221 143 271 268 l23 57 3 915 3 916 42 11 c164 45 213
273 81 382 -59 48 -87 51 -425 51 l-314 0 -1 78 c0 91 -23 147 -81 207 -68 70
-92 76 -361 78 -130 1 -260 -1 -288 -4z m552 -66 c50 -27 99 -80 112 -125 6
-18 12 -63 15 -100 l5 -68 -433 0 -432 0 5 78 c3 46 12 92 23 113 24 48 91
105 137 117 21 6 142 10 282 9 231 -2 247 -3 286 -24z m831 -354 c38 -14 83
-57 99 -96 33 -77 -1 -170 -76 -210 l-43 -23 -1087 0 -1087 0 -43 23 c-98 52
-119 179 -42 261 55 58 -5 55 1169 56 741 0 1091 -3 1110 -11z m-87 -1259 c0
-604 -3 -896 -11 -932 -27 -127 -112 -233 -233 -290 l-71 -33 -705 0 -705 0
-71 33 c-121 57 -206 163 -233 290 -8 36 -11 328 -11 932 l0 880 1020 0 1020
0 0 -880z"/>
<path d="M845 1988 c-3 -7 -4 -402 -3 -878 3 -857 3 -865 23 -865 20 0 20 7
20 875 0 826 -1 875 -18 878 -9 2 -19 -2 -22 -10z"/>
<path d="M1266 1984 c-3 -9 -6 -402 -6 -875 0 -771 2 -860 16 -866 8 -3 20 -1
26 5 11 11 14 1724 3 1742 -9 15 -32 12 -39 -6z"/>
<path d="M1695 1990 c-10 -16 -6 -1733 4 -1743 5 -5 17 -7 25 -4 14 6 16 95
16 866 0 473 -3 866 -6 875 -7 18 -30 21 -39 6z"/>
<path d="M2115 1988 c-3 -7 -4 -402 -3 -878 3 -857 3 -865 23 -865 20 0 20 7
20 875 0 826 -1 875 -18 878 -9 2 -19 -2 -22 -10z"/>
</g>
</svg>
