<?xml version="1.0" standalone="no"?>
<!DOCTYPE svg PUBLIC "-//W3C//DTD SVG 20010904//EN"
 "http://www.w3.org/TR/2001/REC-SVG-20010904/DTD/svg10.dtd">
<svg version="1.0" xmlns="http://www.w3.org/2000/svg"
 width="300.000000pt" height="300.000000pt" viewBox="0 0 300.000000 300.000000"
 preserveAspectRatio="xMidYMid meet">
<metadata>
Created by potrace 1.10, written by Peter Selinger 2001-2011
</metadata>
<g transform="translate(0.000000,300.000000) scale(0.100000,-0.100000)"
fill="#000000" stroke="none">
<path d="M2344 2989 c-28 -4 -68 -15 -90 -25 -27 -12 -351 -329 -1022 -1000
l-983 -982 -125 -476 c-129 -490 -132 -506 -87 -506 11 0 11 4 3 20 -8 14 -8
26 0 40 11 20 12 20 39 4 27 -16 33 -16 108 5 85 22 117 26 109 12 -3 -4 4
-17 15 -27 20 -18 57 -19 980 -22 840 -2 959 -4 959 -17 0 -8 6 -15 14 -15 15
0 46 26 46 39 0 30 -27 31 -1015 32 -544 1 -981 4 -971 6 11 3 163 43 339 88
l319 84 959 958 c528 527 975 978 993 1003 44 60 58 105 57 195 -1 119 -16
143 -219 348 -97 98 -196 190 -220 204 -48 29 -132 42 -208 32z m151 -83 c37
-17 97 -72 226 -202 199 -202 216 -230 206 -330 -8 -74 -38 -121 -144 -226
l-88 -88 -318 317 -317 318 83 83 c45 46 95 93 111 104 72 52 163 61 241 24z
m-167 -581 l316 -316 -32 -32 -32 -32 -317 317 -317 317 29 31 c16 16 31 30
33 30 2 0 146 -142 320 -315z m170 -462 l-32 -33 -318 317 -318 317 32 33 32
33 318 -317 318 -317 -32 -33z m-683 517 l29 -31 -674 -674 -673 -673 -64 -4
c-35 -2 -63 -1 -63 2 0 7 1404 1410 1411 1410 3 0 18 -14 34 -30z m-415 -935
l-675 -675 -93 0 -94 0 3 87 3 88 675 677 676 678 90 -90 90 -90 -675 -675z
m813 537 l87 -87 -678 -676 -677 -675 -87 -3 -88 -3 0 93 0 94 673 672 c369
370 674 673 677 673 3 0 45 -39 93 -88z m172 -172 l29 -31 -704 -704 c-388
-388 -707 -705 -710 -705 -3 0 -4 28 -2 62 l3 63 672 673 c370 369 674 672
678 672 3 0 18 -14 34 -30z m-2031 -825 c4 -11 -1 -15 -19 -15 -24 0 -32 10
-18 23 11 12 31 8 37 -8z m118 -155 c-3 -71 -1 -104 8 -115 10 -12 36 -15 116
-15 l104 0 0 -104 c0 -81 3 -106 15 -116 11 -9 43 -11 116 -7 l100 5 -3 -86
-3 -85 -184 -49 -185 -49 -174 174 -173 173 46 175 c25 96 48 180 50 187 3 8
30 12 88 12 l84 0 -5 -100z m8 -647 c0 -2 -8 -3 -17 -3 -18 0 -332 -82 -367
-96 -16 -6 -18 -4 -12 12 4 10 28 96 52 189 25 94 47 175 49 181 3 9 295 -272
295 -283z m518 149 c-5 -27 -28 -26 -28 2 0 19 4 24 15 19 9 -3 15 -12 13 -21z"/>
</g>
</svg>
