<?xml version="1.0" standalone="no"?>
<!DOCTYPE svg PUBLIC "-//W3C//DTD SVG 20010904//EN"
 "http://www.w3.org/TR/2001/REC-SVG-20010904/DTD/svg10.dtd">
<svg version="1.0" xmlns="http://www.w3.org/2000/svg"
 width="300.000000pt" height="300.000000pt" viewBox="0 0 300.000000 300.000000"
 preserveAspectRatio="xMidYMid meet">
<metadata>
Created by potrace 1.10, written by Peter Selinger 2001-2011
</metadata>
<g transform="translate(0.000000,300.000000) scale(0.100000,-0.100000)"
fill="#000000" stroke="none">
<path d="M1385 2930 c-161 -14 -196 -58 -215 -264 -6 -71 -15 -137 -21 -147
-16 -30 -60 -59 -91 -59 -40 0 -60 12 -153 90 -100 83 -138 103 -196 104 -63
0 -115 -33 -221 -141 -109 -110 -138 -150 -145 -201 -10 -75 3 -104 97 -218
50 -59 93 -118 96 -131 8 -32 -2 -67 -29 -98 -19 -23 -34 -28 -107 -36 -202
-23 -220 -27 -257 -55 -62 -47 -75 -94 -75 -268 0 -277 29 -314 266 -336 71
-6 137 -15 147 -21 30 -16 59 -60 59 -91 0 -40 -12 -60 -90 -153 -83 -100
-103 -138 -104 -196 0 -63 33 -115 141 -221 110 -109 150 -138 201 -145 75
-10 104 3 218 97 59 50 118 93 131 96 32 8 67 -2 98 -29 23 -19 28 -34 36
-107 23 -201 27 -220 54 -256 14 -19 40 -42 58 -51 42 -22 192 -33 318 -23 83
7 107 12 139 34 60 39 76 81 90 230 6 71 15 137 21 147 16 30 60 59 91 59 40
0 60 -12 153 -90 100 -83 138 -103 196 -104 63 0 115 33 221 141 109 110 138
150 145 201 10 75 -3 103 -97 217 -50 59 -93 118 -96 131 -8 33 2 68 29 99 19
23 34 28 107 36 202 23 220 27 257 55 62 47 74 92 74 272 0 166 -6 203 -41
252 -36 50 -82 67 -224 80 -71 6 -137 15 -147 21 -33 17 -59 61 -59 100 0 32
11 50 79 131 95 113 114 149 115 209 0 63 -33 115 -141 221 -110 109 -150 138
-201 145 -75 10 -104 -3 -218 -97 -59 -50 -118 -93 -131 -96 -32 -8 -67 2 -98
29 -23 19 -28 34 -36 107 -23 202 -27 220 -55 257 -15 19 -45 43 -68 53 -49
21 -203 31 -321 20z m305 -75 c45 -23 60 -65 74 -204 17 -169 44 -216 137
-241 65 -18 106 1 225 100 102 86 110 90 155 90 56 0 99 -30 215 -151 132
-137 133 -164 16 -307 -43 -53 -86 -111 -96 -129 -22 -44 -20 -90 7 -143 32
-65 81 -86 234 -99 204 -17 217 -34 217 -271 0 -227 -13 -243 -207 -261 -61
-5 -131 -17 -154 -25 -78 -28 -124 -114 -103 -193 6 -24 38 -71 81 -123 94
-110 109 -135 109 -185 0 -49 -35 -97 -151 -209 -139 -134 -161 -134 -322 -5
-70 57 -123 93 -144 97 -77 14 -154 -23 -183 -89 -11 -26 -22 -89 -28 -164
-18 -204 -35 -217 -272 -217 -230 0 -242 10 -264 221 -17 170 -43 216 -135
244 -61 18 -109 -2 -213 -90 -111 -93 -125 -101 -176 -101 -48 0 -98 37 -208
151 -132 137 -133 165 -16 308 44 53 87 111 96 128 22 44 20 91 -6 143 -33 65
-82 86 -235 99 -204 17 -217 34 -217 271 0 230 11 243 223 264 167 17 214 43
242 135 18 61 -2 109 -90 213 -93 111 -101 125 -101 176 0 49 38 101 164 219
89 85 127 103 178 88 12 -4 66 -42 118 -85 53 -42 110 -85 127 -94 44 -22 91
-20 143 7 65 32 86 81 99 234 14 174 32 200 141 214 88 12 286 1 320 -16z"/>
<path d="M1335 2164 c-183 -45 -361 -188 -443 -354 -53 -108 -72 -190 -72
-310 0 -191 62 -343 195 -475 140 -140 265 -195 455 -203 141 -5 220 11 340
71 67 32 102 59 165 122 89 89 133 157 173 267 24 67 27 86 27 218 0 132 -3
151 -27 218 -39 108 -84 178 -168 262 -85 85 -155 130 -262 167 -61 22 -94 27
-198 29 -87 3 -143 -1 -185 -12z m315 -56 c168 -40 328 -167 408 -323 71 -141
86 -323 38 -471 -157 -486 -792 -595 -1096 -189 -86 115 -122 227 -122 375 0
178 56 314 182 440 158 158 374 220 590 168z"/>
<path d="M1391 1924 c-80 -21 -145 -60 -206 -125 -170 -178 -163 -443 14 -613
175 -166 427 -166 602 0 177 170 184 435 14 613 -114 120 -271 166 -424 125z
m272 -82 c77 -38 148 -111 185 -190 23 -49 27 -70 27 -152 0 -82 -4 -103 -27
-152 -37 -80 -107 -152 -187 -191 -60 -29 -74 -32 -161 -32 -82 0 -103 4 -152
27 -80 37 -152 107 -191 187 -29 60 -32 74 -32 161 0 82 4 103 27 152 47 100
137 180 241 214 26 9 73 13 124 11 67 -3 92 -9 146 -35z"/>
</g>
</svg>
