<?xml version="1.0" encoding="UTF-8"?>
<svg version="1.1" xmlns="http://www.w3.org/2000/svg" width="512" height="512">
<path d="M0 0 C0.891996 -0.0033284 1.783992 -0.0066568 2.70301819 -0.01008606 C4.5743865 -0.01510928 6.44576362 -0.01749583 8.31713867 -0.01733398 C11.14972915 -0.01952319 13.9819311 -0.03773587 16.81445312 -0.05664062 C44.38891101 -0.14444143 44.38891101 -0.14444143 54.453125 9.25 C64.42603321 19.91320058 64.59220999 31.40784379 65.90625 45.3828125 C66.03064453 46.67106934 66.15503906 47.95932617 66.28320312 49.28662109 C66.53166478 51.88613512 66.76891407 54.48674877 66.99414062 57.08837891 C67.10951172 58.30187012 67.22488281 59.51536133 67.34375 60.765625 C67.44099365 61.85367432 67.5382373 62.94172363 67.63842773 64.06274414 C68.90482441 70.79375095 71.9037694 74.28961376 77.22265625 78.16796875 C80.04093803 79.10739601 82.03487294 79.39379502 84.97265625 79.48046875 C85.7925 79.51785156 86.61234375 79.55523437 87.45703125 79.59375 C94.34808027 78.53283991 99.46384769 73.47833544 104.47265625 68.98046875 C105.79075402 67.81927572 107.10977095 66.65912524 108.4296875 65.5 C109.07244629 64.93361816 109.71520508 64.36723633 110.37744141 63.78369141 C131.22012895 45.53324073 131.22012895 45.53324073 145.61328125 45.92578125 C154.60870071 46.76068545 160.55371571 50.26544161 167.22265625 56.16796875 C168.42728516 57.22757813 168.42728516 57.22757813 169.65625 58.30859375 C171.33872379 59.80995882 173.01181799 61.32189541 174.67578125 62.84375 C176.37995391 64.39893824 178.09896271 65.9380165 179.83203125 67.4609375 C184.31189003 71.40457076 188.54708392 75.36564785 192.3671875 79.95703125 C193.77716894 81.63713545 195.24368484 83.26998094 196.734375 84.87890625 C203.84414538 92.68326452 207.40376505 100.26588575 208.66015625 110.85546875 C206.69815141 125.71064825 197.64448315 135.22212002 188.22265625 146.16796875 C178.80451286 156.41043273 178.80451286 156.41043273 174.78515625 169.29296875 C175.23703289 173.29530475 176.21537129 175.71543862 178.22265625 179.16796875 C178.55265625 180.15796875 178.88265625 181.14796875 179.22265625 182.16796875 C184.8015168 185.81568526 191.75184641 186.49518385 198.24609375 186.94921875 C198.99170563 187.00823364 199.7373175 187.06724854 200.50552368 187.12805176 C202.86910153 187.31481183 205.23321893 187.49244917 207.59765625 187.66796875 C237.62657646 189.90718363 237.62657646 189.90718363 247.59765625 200.35546875 C255.07845607 209.95547532 255.37511326 222.17890624 255.390625 233.8125 C255.3939534 234.70353928 255.3972818 235.59457855 255.40071106 236.51261902 C255.40574087 238.38576751 255.40812062 240.25892484 255.40795898 242.13208008 C255.41014243 244.96255608 255.42833231 247.79263971 255.44726562 250.62304688 C255.53874774 279.344006 255.53874774 279.344006 246.140625 289.39453125 C235.48687923 299.3767462 223.9788559 299.53789158 210.0078125 300.8515625 C208.71955566 300.97595703 207.43129883 301.10035156 206.10400391 301.22851562 C203.50448988 301.47697728 200.90387623 301.71422657 198.30224609 301.93945312 C197.08875488 302.05482422 195.87526367 302.17019531 194.625 302.2890625 C193.53695068 302.38630615 192.44890137 302.4835498 191.32788086 302.58374023 C184.57160436 303.85489124 181.15866274 306.88247431 177.22265625 312.16796875 C175.96541658 314.68244809 175.98378611 316.54590812 175.91015625 319.35546875 C175.87277344 320.27714844 175.83539063 321.19882812 175.796875 322.1484375 C176.79179705 329.20416914 181.81611471 334.30206022 186.41015625 339.41796875 C187.57134928 340.73606652 188.73149976 342.05508345 189.890625 343.375 C190.45700684 344.01775879 191.02338867 344.66051758 191.60693359 345.32275391 C209.97377609 366.2983652 209.97377609 366.2983652 209.52734375 380.7578125 C207.9512776 393.22489983 199.94131223 402.87598896 191.140625 411.28515625 C189.2888893 413.10294975 187.63610177 414.99077847 185.97265625 416.98046875 C176.62636517 427.82387739 163.24216548 441.62750626 148.22265625 443.16796875 C137.04006113 443.92611079 129.57507583 440.35916417 121.22265625 433.16796875 C119.47446568 431.74906982 117.72436699 430.33251954 115.97265625 428.91796875 C112.90090595 426.40707173 109.86401098 423.86673068 106.87890625 421.25390625 C106.31204102 420.76180664 105.74517578 420.26970703 105.16113281 419.76269531 C104.06799725 418.81118055 102.98095182 417.85260449 101.90136719 416.88574219 C96.70040201 412.37163463 91.36139558 409.50376292 84.2734375 409.8203125 C79.02481642 410.71007874 75.34327378 412.74393492 72.05859375 416.91796875 C70.1176013 420.35393837 69.52472309 422.64484802 69.09765625 426.54296875 C68.94941406 427.84621094 68.80117188 429.14945312 68.6484375 430.4921875 C68.21140358 435.05241043 67.87493902 439.61989305 67.52880859 444.18774414 C65.3637205 472.33605884 65.3637205 472.33605884 55.37109375 481.94921875 C45.47307175 489.99382627 33.59461855 490.32004019 21.359375 490.3359375 C20.44613968 490.3392659 19.53290436 490.3425943 18.59199524 490.34602356 C16.67176817 490.35105454 14.75153248 490.35343308 12.83129883 490.35327148 C9.9283983 490.35545503 7.02588027 490.37364393 4.12304688 490.39257812 C-23.81364323 490.48179201 -23.81364323 490.48179201 -34.77734375 481.16796875 C-41.74380617 473.36268739 -44.05156447 463.94570008 -44.83984375 453.75 C-44.99869651 451.98372383 -45.15755072 450.21744779 -45.31640625 448.45117188 C-45.54975295 445.70639443 -45.77893515 442.96129911 -46.00683594 440.21606445 C-46.23285366 437.53889884 -46.47338562 434.86331026 -46.71484375 432.1875 C-46.77744385 431.37175003 -46.84004395 430.55600006 -46.90454102 429.7155304 C-47.40083348 424.26040874 -48.45922465 419.70944828 -52.27734375 415.5234375 C-57.98404484 411.07993848 -62.69336951 410.29445614 -69.77734375 411.16796875 C-76.78937533 413.6793201 -82.69791726 420.26067368 -88.234375 425.08984375 C-111.09032256 445.01839808 -111.09032256 445.01839808 -125.16796875 444.515625 C-137.49877182 442.87274854 -145.52663612 435.45790557 -154.34375 427.37890625 C-156.4297325 425.48377608 -158.55582793 423.66568651 -160.71484375 421.85546875 C-164.30179197 418.73254053 -167.548027 415.34015327 -170.77734375 411.85546875 C-171.27097412 411.32719482 -171.76460449 410.7989209 -172.27319336 410.25463867 C-175.77734375 406.41179717 -175.77734375 406.41179717 -175.77734375 404.16796875 C-176.43734375 404.16796875 -177.09734375 404.16796875 -177.77734375 404.16796875 C-184.40375473 396.66335873 -188.6167979 387.70730735 -188.1015625 377.5625 C-186.52948797 365.9518773 -180.8981095 359.1027115 -173.23876953 350.78271484 C-169.88558848 347.07774667 -166.8623612 343.09556086 -163.77734375 339.16796875 C-163.12636719 338.36359375 -162.47539062 337.55921875 -161.8046875 336.73046875 C-161.17691406 335.94671875 -160.54914063 335.16296875 -159.90234375 334.35546875 C-159.34804687 333.66839844 -158.79375 332.98132813 -158.22265625 332.2734375 C-155.05495357 327.65886521 -154.29791148 323.72938311 -154.77734375 318.16796875 C-156.4716661 312.99582683 -158.50210473 309.56872706 -162.77734375 306.16796875 C-167.75221697 304.4608969 -172.58259521 303.75153987 -177.80078125 303.38671875 C-178.54639313 303.32770386 -179.292005 303.26868896 -180.06021118 303.20788574 C-182.42378903 303.02112567 -184.78790643 302.84348833 -187.15234375 302.66796875 C-217.16278957 300.43013148 -217.16278957 300.43013148 -226.58984375 290.48046875 C-233.4006911 281.82209333 -234.53154907 272.67545466 -235.08984375 261.91796875 C-235.16686523 260.60199707 -235.24388672 259.28602539 -235.32324219 257.93017578 C-237.64502729 215.10678926 -237.64502729 215.10678926 -227.0546875 202.04296875 C-216.74434469 190.89222027 -203.88533164 190.83579433 -189.5703125 189.48828125 C-188.28092773 189.36332275 -186.99154297 189.23836426 -185.66308594 189.10961914 C-183.06199594 188.85983601 -180.45975225 188.62174816 -177.85644531 188.39624023 C-176.0364502 188.22330444 -176.0364502 188.22330444 -174.1796875 188.046875 C-173.09163818 187.94963135 -172.00358887 187.8523877 -170.88256836 187.75219727 C-164.15156155 186.48580059 -160.65569874 183.4868556 -156.77734375 178.16796875 C-154.90973506 172.56514267 -154.97096567 167.13132408 -157.21484375 161.66796875 C-159.84829291 157.69453133 -163.1867247 154.26487823 -166.4140625 150.7734375 C-169.36586487 147.51913637 -172.09213095 144.12462325 -174.796875 140.6640625 C-176.1325599 138.98062532 -177.50644921 137.32689829 -178.9140625 135.703125 C-185.51132067 127.9839671 -189.61490552 120.00668862 -189.08984375 109.63671875 C-187.40374983 96.31657681 -179.21500245 88.47551907 -170.40625 79.01953125 C-168.28100114 76.7142836 -166.23434287 74.37713201 -164.21484375 71.98046875 C-160.12405632 67.27606321 -155.49630532 63.22797622 -150.77734375 59.16796875 C-149.96007812 58.43964844 -149.1428125 57.71132812 -148.30078125 56.9609375 C-140.63146565 50.39941194 -132.52911419 46.30043814 -122.23046875 46.8671875 C-107.83044851 48.63279508 -98.22997991 58.83779569 -87.67700195 67.96411133 C-78.22476251 76.60852156 -78.22476251 76.60852156 -66.40234375 80.48046875 C-60.94433493 80.00995075 -57.22900943 78.32930129 -52.96484375 74.91796875 C-48.90683029 69.81646612 -48.45508446 63.72940723 -47.99609375 57.3984375 C-47.93707886 56.67739334 -47.87806396 55.95634918 -47.81726074 55.2134552 C-47.63059574 52.92793626 -47.45297807 50.64185993 -47.27734375 48.35546875 C-44.90279524 17.65968677 -44.90279524 17.65968677 -34.58984375 7.79296875 C-24.68659596 0.0928664 -11.98068291 0.01601337 0 0 Z M-27.77734375 17.16796875 C-34.14960618 23.54023118 -34.95071721 30.60559731 -35.5234375 39.25390625 C-35.63976317 40.77735986 -35.75630638 42.30079687 -35.87304688 43.82421875 C-36.04564787 46.1823646 -36.21468463 48.54068663 -36.37915039 50.89941406 C-38.12378305 75.51440805 -38.12378305 75.51440805 -47.40234375 84.79296875 C-53.48103109 89.51235164 -60.58781296 91.91199057 -68.26953125 91.55078125 C-80.00709964 89.7590652 -88.02087287 81.82794727 -96.70483398 74.42553711 C-109.02937434 63.25927062 -109.02937434 63.25927062 -124.21484375 57.79296875 C-132.08254845 58.62114819 -137.21154305 61.79838179 -142.90234375 66.98046875 C-143.54268555 67.551604 -144.18302734 68.12273926 -144.84277344 68.71118164 C-154.18860535 77.13367106 -163.16424234 85.82596056 -171.02734375 95.66796875 C-171.48141602 96.2312085 -171.93548828 96.79444824 -172.40332031 97.37475586 C-176.41300443 102.56489717 -178.28399576 107.49748175 -178.0925293 114.1081543 C-177.0707712 120.78559275 -172.47377285 126.12447816 -168.08984375 130.98046875 C-167.01995766 132.19845011 -165.95095608 133.41720896 -164.8828125 134.63671875 C-164.3573584 135.23226562 -163.8319043 135.8278125 -163.29052734 136.44140625 C-144.19308473 158.23184093 -144.19308473 158.23184093 -144.4609375 173.91015625 C-145.17489931 181.26131856 -148.62678853 187.01741353 -153.77734375 192.16796875 C-160.4755417 196.83361008 -166.76951194 198.47786287 -174.734375 199.1328125 C-176.50457256 199.29475506 -178.27475437 199.45686985 -180.04492188 199.61914062 C-182.81585658 199.86400252 -185.58704995 200.10522955 -188.35864258 200.3425293 C-191.04733945 200.5755481 -193.73452483 200.82230888 -196.421875 201.0703125 C-197.23985062 201.13604965 -198.05782623 201.2017868 -198.90058899 201.26951599 C-205.46196251 201.88374803 -211.30561899 203.14564849 -216.52734375 207.41796875 C-228.71918215 222.31910457 -225.53302336 247.92592015 -223.77734375 266.16796875 C-222.89638181 274.17921644 -221.44347372 279.50183878 -215.58984375 285.35546875 C-206.61771085 291.13750995 -196.15166887 291.00202048 -185.83984375 291.66796875 C-159.61454705 293.36538184 -159.61454705 293.36538184 -150.69140625 301.91015625 C-145.50999307 308.02210894 -143.33868399 315.70647365 -143.51953125 323.625 C-144.59731369 334.25585405 -150.49972367 340.99721641 -157.36230469 348.58349609 C-160.98933023 352.64481351 -164.3693494 356.92292315 -167.77734375 361.16796875 C-168.36644531 361.89886719 -168.95554688 362.62976563 -169.5625 363.3828125 C-174.39643939 369.57073 -177.63743911 374.99706285 -176.77734375 383.16796875 C-174.86157424 389.40550786 -172.33114803 393.49803427 -167.96484375 398.29296875 C-167.3937085 398.93331055 -166.82257324 399.57365234 -166.23413086 400.23339844 C-157.81164144 409.57923035 -149.11935194 418.55486734 -139.27734375 426.41796875 C-138.714104 426.87204102 -138.15086426 427.32611328 -137.57055664 427.79394531 C-131.93658046 432.14651752 -126.86851997 433.77927704 -119.77734375 433.16796875 C-113.37378853 431.23694847 -109.33912399 428.5481426 -104.46484375 424.04296875 C-103.15460186 422.87132583 -101.84339736 421.70075854 -100.53125 420.53125 C-99.89461426 419.95842285 -99.25797852 419.3855957 -98.60205078 418.79541016 C-77.03964569 399.56407588 -77.03964569 399.56407588 -61.03125 399.85546875 C-53.35088659 400.59307868 -46.88741506 404.44575348 -41.77734375 410.16796875 C-34.38944769 420.46484888 -35.15279488 435.70303229 -34.25097656 447.828125 C-33.45028007 461.49528357 -33.45028007 461.49528357 -26.91455078 473.10009766 C-14.11074608 484.10170775 10.71067829 480.45081899 26.16015625 479.48046875 C27.33811768 479.41504883 28.5160791 479.34962891 29.72973633 479.28222656 C37.76319366 478.68839654 44.5490989 477.51529526 50.09765625 471.16796875 C53.23922494 466.73281295 54.47019853 463.68651805 55.00390625 458.25 C55.12233887 457.08581543 55.24077148 455.92163086 55.36279297 454.72216797 C55.48154785 453.48740723 55.60030273 452.25264648 55.72265625 450.98046875 C55.98563278 448.43749542 56.24865349 445.89452665 56.51171875 443.3515625 C56.92922788 439.19978665 57.32567512 435.04792408 57.68359375 430.890625 C58.57320945 421.13123468 60.08228295 412.79247037 67.41015625 405.79296875 C73.67162842 401.02232329 80.76816905 398.36608455 88.671875 398.80859375 C99.81030056 400.37786657 106.51718089 406.342728 114.54003906 413.65478516 C118.62411825 417.32761203 122.93557832 420.73694759 127.22265625 424.16796875 C127.96386719 424.76738281 128.70507812 425.36679687 129.46875 425.984375 C135.45199913 430.67822828 140.43576984 432.83925206 148.22265625 432.16796875 C156.01331508 430.25223297 160.51672852 425.6082915 166.22265625 420.16796875 C167.52874007 419.03552613 168.84082448 417.90994902 170.16015625 416.79296875 C189.08690962 400.42797275 189.08690962 400.42797275 198.66015625 378.23046875 C198.33677447 370.64734778 193.4155463 364.7613792 188.53515625 359.35546875 C187.46527016 358.13748739 186.39626858 356.91872854 185.328125 355.69921875 C184.8026709 355.10367187 184.2772168 354.508125 183.73583984 353.89453125 C164.66384099 332.13312823 164.66384099 332.13312823 164.90625 316.68359375 C165.57785188 309.22135061 168.88220046 303.38974774 174.22265625 298.16796875 C180.6927035 293.60042349 186.754162 292.21515762 194.53515625 291.48046875 C196.0965332 291.30632446 196.0965332 291.30632446 197.68945312 291.12866211 C202.77142283 290.57229005 207.85848716 290.10659176 212.953125 289.68359375 C214.28960083 289.56697388 214.28960083 289.56697388 215.65307617 289.44799805 C217.30946294 289.30777566 218.96727022 289.18304641 220.6262207 289.07739258 C227.51768248 288.51384707 232.7491756 286.25668575 238.03515625 281.79296875 C244.33389715 274.23447967 244.37829973 266.07645269 244.390625 256.68359375 C244.3939534 255.78735291 244.3972818 254.89111206 244.40071106 253.9677124 C244.40575272 252.07841501 244.40812024 250.1891088 244.40795898 248.29980469 C244.41013899 245.44060228 244.4283065 242.58179024 244.44726562 239.72265625 C245.14406671 222.38034193 245.14406671 222.38034193 238.22265625 207.16796875 C231.91014461 200.85545711 224.88902112 200.00980912 216.3203125 199.38671875 C215.59831161 199.32770386 214.87631073 199.26868896 214.13243103 199.20788574 C211.85045842 199.02159346 209.56796195 198.8437368 207.28515625 198.66796875 C178.51440605 196.44754092 178.51440605 196.44754092 170.41015625 187.23046875 C165.18392406 179.91374369 163.30799325 173.06514516 164.22265625 164.16796875 C166.08516079 154.74083037 171.57105398 148.64668609 177.80761719 141.75244141 C181.43485281 137.69088875 184.81126003 133.41060186 188.22265625 129.16796875 C188.81175781 128.44867188 189.40085937 127.729375 190.0078125 126.98828125 C194.64083649 121.13723867 197.5918441 115.86227799 197.28515625 108.23046875 C195.57090201 96.9163908 185.45988559 88.74523145 177.86474609 80.87304688 C176.50012396 79.45607974 175.15044548 78.02473917 173.8046875 76.58984375 C169.48754461 72.08640764 164.84586771 68.11136306 159.97265625 64.23046875 C159.38162109 63.75706055 158.79058594 63.28365234 158.18164062 62.79589844 C152.81146032 58.61469916 148.45203278 56.59175693 141.671875 56.8046875 C133.08560134 58.07824962 127.0943582 63.77703131 121.01953125 69.54296875 C116.62271451 73.66959005 111.93866696 77.4152895 107.22265625 81.16796875 C106.13984375 82.05355469 106.13984375 82.05355469 105.03515625 82.95703125 C96.63021543 89.62188667 88.98622781 91.34337718 78.22265625 90.16796875 C71.29563372 88.31867314 65.21664829 84.25663913 60.97265625 78.4609375 C54.71753686 67.53747534 55.47418823 52.11162118 54.45507812 39.90039062 C53.26324855 26.87182139 53.26324855 26.87182139 46.22265625 16.16796875 C30.94729916 6.4859437 -13.4234894 4.86466502 -27.77734375 17.16796875 Z " fill="#FFFFFF" transform="translate(245.77734375,10.83203125)"/>
<path d="M0 0 C1.85238281 0.54333984 1.85238281 0.54333984 3.7421875 1.09765625 C34.56570586 11.2234223 58.20062356 33.36757013 72.97460938 61.91064453 C86.64553793 89.76678896 87.85887465 122.91731178 78.08178711 152.1628418 C72.54063055 167.54601114 64.15016978 181.10970351 53 193 C51.79923828 194.32064453 51.79923828 194.32064453 50.57421875 195.66796875 C39.84680758 206.9923226 27.12022622 214.64129578 13 221 C11.94425781 221.48339844 10.88851562 221.96679688 9.80078125 222.46484375 C-12.18360909 231.72587374 -39.06169583 233.5234946 -62 227 C-63.24910156 226.68289063 -64.49820313 226.36578125 -65.78515625 226.0390625 C-93.57629115 218.56743794 -119.41420234 198.8682939 -134 174 C-144.80247938 154.36189138 -150.41963057 134.62397172 -150.3125 112.125 C-150.30758545 110.89628174 -150.3026709 109.66756348 -150.29760742 108.40161133 C-150.18342329 99.55907539 -149.50953093 91.52026227 -147 83 C-146.6596875 81.79085937 -146.319375 80.58171875 -145.96875 79.3359375 C-140.20670138 60.53141395 -130.48299853 45.27202082 -117 31 C-116.30261719 30.23816406 -115.60523438 29.47632813 -114.88671875 28.69140625 C-100.80277915 13.83503852 -81.64567048 4.08077685 -62 -1 C-60.89398438 -1.31839844 -59.78796875 -1.63679687 -58.6484375 -1.96484375 C-39.81360194 -6.66272802 -18.53023483 -5.47627387 0 0 Z M-111.30078125 40.0234375 C-129.0184305 60.63293294 -139.4387222 84.21561041 -139.3125 111.6875 C-139.30831055 112.92757812 -139.30412109 114.16765625 -139.29980469 115.4453125 C-139.19022888 124.33261026 -138.50198263 132.43260493 -136 141 C-135.59974609 142.48306641 -135.59974609 142.48306641 -135.19140625 143.99609375 C-131.09426783 157.70785034 -124.10814177 170.0231188 -115 181 C-113.97132813 182.27423828 -113.97132813 182.27423828 -112.921875 183.57421875 C-96.51214104 202.93162714 -71.39684464 216.78129784 -46 219 C-25.68230009 220.24126345 -7.69197053 218.23972578 11 210 C12.25103516 209.46632813 12.25103516 209.46632813 13.52734375 208.921875 C38.4603023 197.44544027 56.89737761 175.34359352 66.90625 150.15234375 C76.65733698 122.04831806 75.19301941 92.67754106 62.4765625 65.77734375 C58.21791013 57.38999789 52.91372192 50.25158032 47 43 C46.46117187 42.28328125 45.92234375 41.5665625 45.3671875 40.828125 C30.22662881 21.64479933 3.65730233 10.187186 -20 7 C-53.98045278 4.51288971 -87.51186245 14.73647596 -111.30078125 40.0234375 Z " fill="#FFFFFF" transform="translate(289,143)"/>
<path d="M0 0 C2.48954233 1.93167233 4.85039727 3.93800776 7.1875 6.05078125 C7.89519531 6.67726562 8.60289062 7.30375 9.33203125 7.94921875 C22.77732865 20.54615131 30.54185629 38.80194986 31.50390625 57.04296875 C32.21324638 78.90427036 26.29688578 97.82218171 11.1875 114.05078125 C-1.4239119 127.1913433 -19.25549848 136.57557354 -37.6484375 137.2890625 C-61.23394475 137.76222196 -80.60446603 131.82805981 -98.0625 115.17578125 C-113.21494459 99.28117611 -119.49579678 80.08457266 -119.28295898 58.49121094 C-118.72148132 40.45804572 -111.91424946 24.42400908 -99.8125 11.05078125 C-99.13574219 10.28121094 -98.45898438 9.51164062 -97.76171875 8.71875 C-72.85845045 -18.00559824 -29.38917793 -20.36833304 0 0 Z M-88.8046875 14.94921875 C-100.90671682 27.61632337 -108.4504708 43.10938006 -108.25 60.73828125 C-108.24097656 61.69798828 -108.23195312 62.65769531 -108.22265625 63.64648438 C-107.79530229 81.36980259 -101.29216498 96.59384406 -88.58789062 108.91674805 C-75.21534706 121.18393348 -58.22794062 127.62917856 -40.015625 126.8984375 C-20.79178923 124.80455497 -5.35062542 116.73558572 7.1875 102.05078125 C19.09886654 85.8025581 22.16494003 68.2512762 19.76171875 48.5625 C16.07129477 31.83106858 6.06885008 17.81988791 -7.765625 7.98828125 C-12.2673228 5.12566316 -16.82398212 2.92516519 -21.8125 1.05078125 C-22.62203125 0.74398437 -23.4315625 0.4371875 -24.265625 0.12109375 C-46.46314097 -7.39741973 -71.75105402 -0.72355372 -88.8046875 14.94921875 Z " fill="#FFFFFF" transform="translate(299.8125,193.94921875)"/>
</svg>
